<svg width="301" height="91" viewBox="0 0 301 91" fill="none" xmlns="http://www.w3.org/2000/svg">
<mask id="mask0" mask-type="alpha" maskUnits="userSpaceOnUse" x="0" y="0" width="116" height="91">
<rect width="115.5" height="91" fill="#C4C4C4"/>
</mask>
<g mask="url(#mask0)">
<path d="M19.25 7.504H27.65V66.304H19.25V7.504Z" fill="#6BF6B1"/>
<path d="M59.0999 21.364C64.7559 21.364 69.2359 23.016 72.5399 26.32C75.8999 29.568 77.5799 34.356 77.5799 40.684V66.304H69.5159V41.608C69.5159 37.296 68.4799 34.048 66.4079 31.864C64.3359 29.68 61.3679 28.588 57.5039 28.588C53.1359 28.588 49.6919 29.876 47.1719 32.452C44.6519 34.972 43.3919 38.612 43.3919 43.372V66.304H35.3279V21.784H43.0559V28.504C44.6799 26.208 46.8639 24.444 49.6079 23.212C52.4079 21.98 55.5719 21.364 59.0999 21.364Z" fill="#6BF6B1"/>
<path d="M141.746 67.228L133.934 59.416C128.726 64.456 122.174 66.9759 114.278 66.9759C110.358 66.9759 106.83 66.332 103.694 65.044C100.558 63.756 98.0943 61.9639 96.3023 59.6679C94.5663 57.3159 93.6983 54.656 93.6983 51.688C93.6983 48.104 94.7903 44.94 96.9743 42.196C99.2143 39.396 102.882 36.54 107.978 33.628C105.402 31.052 103.582 28.728 102.518 26.656C101.454 24.584 100.922 22.428 100.922 20.188C100.922 16.212 102.35 13.02 105.206 10.612C108.118 8.204 111.982 7 116.798 7C121.278 7 124.834 8.092 127.466 10.276C130.098 12.46 131.414 15.456 131.414 19.264C131.414 22.232 130.434 24.892 128.474 27.244C126.57 29.596 123.378 32.06 118.898 34.636L133.43 49.084C135.11 45.892 136.314 42.336 137.042 38.416L143.51 40.516C142.502 45.668 140.794 50.148 138.386 53.956L146.282 61.852L141.746 67.228ZM116.798 12.88C114.166 12.88 112.094 13.552 110.582 14.896C109.126 16.184 108.398 17.892 108.398 20.02C108.398 21.532 108.79 22.988 109.574 24.388C110.414 25.788 112.01 27.692 114.362 30.1C118.226 27.916 120.886 26.04 122.342 24.472C123.854 22.904 124.61 21.196 124.61 19.348C124.61 17.388 123.91 15.82 122.51 14.644C121.166 13.468 119.262 12.88 116.798 12.88ZM114.782 60.2559C120.606 60.2559 125.394 58.408 129.146 54.712L112.43 38.08C108.398 40.32 105.57 42.42 103.946 44.38C102.378 46.284 101.594 48.44 101.594 50.848C101.594 53.648 102.798 55.916 105.206 57.652C107.67 59.388 110.862 60.2559 114.782 60.2559Z" fill="#6BF6B1"/>
</g>
<mask id="mask1" mask-type="alpha" maskUnits="userSpaceOnUse" x="115" y="0" width="186" height="91">
<rect width="185.5" height="91" transform="matrix(-1 0 0 1 301 0)" fill="#C4C4C4"/>
</mask>
<g mask="url(#mask1)">
<path d="M140.798 67.396L132.986 59.5839C127.778 64.6239 121.226 67.1439 113.33 67.1439C109.41 67.1439 105.882 66.5 102.746 65.212C99.61 63.924 97.146 62.1319 95.354 59.8359C93.618 57.4839 92.75 54.824 92.75 51.856C92.75 48.272 93.842 45.108 96.026 42.364C98.266 39.564 101.934 36.708 107.03 33.796C104.454 31.22 102.634 28.896 101.57 26.824C100.506 24.752 99.974 22.596 99.974 20.356C99.974 16.38 101.402 13.188 104.258 10.78C107.17 8.37199 111.034 7.16799 115.85 7.16799C120.33 7.16799 123.886 8.25999 126.518 10.444C129.15 12.628 130.466 15.624 130.466 19.432C130.466 22.4 129.486 25.06 127.526 27.412C125.622 29.764 122.43 32.228 117.95 34.804L132.482 49.252C134.162 46.06 135.366 42.504 136.094 38.584L142.562 40.684C141.554 45.836 139.846 50.316 137.438 54.124L145.334 62.0199L140.798 67.396ZM115.85 13.048C113.218 13.048 111.146 13.72 109.634 15.064C108.178 16.352 107.45 18.06 107.45 20.188C107.45 21.7 107.842 23.156 108.626 24.556C109.466 25.956 111.062 27.86 113.414 30.268C117.278 28.084 119.938 26.208 121.394 24.64C122.906 23.072 123.662 21.364 123.662 19.516C123.662 17.556 122.962 15.988 121.562 14.812C120.218 13.636 118.314 13.048 115.85 13.048ZM113.834 60.4239C119.658 60.4239 124.446 58.576 128.198 54.88L111.482 38.248C107.45 40.488 104.622 42.588 102.998 44.548C101.43 46.452 100.646 48.608 100.646 51.016C100.646 53.816 101.85 56.084 104.258 57.82C106.722 59.556 109.914 60.4239 113.834 60.4239Z" fill="#BE52F2"/>
<path d="M186.979 67.1439C181.043 67.1439 175.695 65.8559 170.935 63.2799C166.175 60.6479 162.423 57.036 159.679 52.444C156.991 47.852 155.647 42.728 155.647 37.072C155.647 31.416 156.991 26.292 159.679 21.7C162.423 17.108 166.175 13.524 170.935 10.948C175.695 8.31599 181.043 7 186.979 7C192.859 7 198.179 8.31599 202.939 10.948C207.699 13.524 211.423 17.108 214.111 21.7C216.799 26.236 218.143 31.36 218.143 37.072C218.143 42.784 216.799 47.936 214.111 52.528C211.423 57.064 207.699 60.6479 202.939 63.2799C198.179 65.8559 192.859 67.1439 186.979 67.1439ZM186.979 59.668C191.291 59.668 195.155 58.688 198.571 56.728C202.043 54.768 204.759 52.08 206.719 48.664C208.735 45.192 209.743 41.328 209.743 37.072C209.743 32.816 208.735 28.98 206.719 25.564C204.759 22.092 202.043 19.376 198.571 17.416C195.155 15.456 191.291 14.476 186.979 14.476C182.667 14.476 178.747 15.456 175.219 17.416C171.747 19.376 169.003 22.092 166.987 25.564C165.027 28.98 164.047 32.816 164.047 37.072C164.047 41.328 165.027 45.192 166.987 48.664C169.003 52.08 171.747 54.768 175.219 56.728C178.747 58.688 182.667 59.668 186.979 59.668Z" fill="#BE52F2"/>
<path d="M262.551 21.952V66.472H254.907V59.7519C253.283 62.0479 251.127 63.8399 248.439 65.1279C245.807 66.3599 242.923 66.9759 239.787 66.9759C233.851 66.9759 229.175 65.352 225.759 62.104C222.343 58.7999 220.635 53.956 220.635 47.572V21.952H228.699V46.648C228.699 50.96 229.735 54.2359 231.807 56.4759C233.879 58.6599 236.847 59.7519 240.711 59.7519C244.967 59.7519 248.327 58.4639 250.791 55.8879C253.255 53.3119 254.487 49.672 254.487 44.968V21.952H262.551Z" fill="#BE52F2"/>
<path d="M295.935 63.8679C294.759 64.8759 293.303 65.6599 291.567 66.2199C289.831 66.7239 288.039 66.9759 286.191 66.9759C281.711 66.9759 278.239 65.772 275.775 63.364C273.311 60.956 272.079 57.512 272.079 53.032V28.588H264.519V21.952H272.079V12.208H280.143V21.952H292.911V28.588H280.143V52.696C280.143 55.104 280.731 56.952 281.907 58.24C283.139 59.528 284.875 60.1719 287.115 60.1719C289.579 60.1719 291.679 59.472 293.415 58.0719L295.935 63.8679Z" fill="#BE52F2"/>
</g>
</svg>
